<svg height="512" viewBox="0 0 48 60" width="512" xmlns="http://www.w3.org/2000/svg"><g id="015---Alien-Head" transform="translate(-1)"><path id="Shape" d="m12 30.15c-4.21 1-5 3.79-2.9 6.79 1.89 2.64 5.39 3.27 8.63 3 1.86-.16 2.74-2.36 1.92-4.25-1.86-4.31-4.57-6.28-7.65-5.54zm5.82 7.6c-.0494947.1045719-.1462311.1789846-.26.2-1.86.15-5.22.08-6.83-2.17-1.32-1.85-1-3 1.75-3.68 2.52-.63 4.29 2 5.34 4.4.2059805.388045.2207496.8495797.04 1.25z"/><path id="Shape" d="m38 30.15c-3-.74-5.75 1.23-7.65 5.54-.452613.9862639-.4118176 2.1285371.11 3.08.68 1.23 1.76 1.23 3.16 1.23 3.27 0 5.81-1.06 7.24-3.06 2.14-3.01 1.29-5.76-2.86-6.79zm1.27 5.63c-1.65 2.22-5.01 2.32-6.87 2.22-.37 0-.54-.82-.26-1.45.93-2.12 2.46-4.5 4.6-4.5.93 0 2.84.62 3.19 1.56.25.62-.24 1.53-.7 2.17z"/><path id="Shape" d="m25 0c-8.11 0-24 6-24 20-.0348813 4.6202409.84537782 9.2016667 2.59 13.48-1.48 5.14 1.11 9.68 6.68 10.52 1.9004287 2.8552598 3.3349889 5.994415 4.25 9.3.81 3.03 3.29 6.7 10.48 6.7s9.67-3.67 10.48-6.74c.9189616-3.2916651 2.3533931-6.4170382 4.25-9.26 5.57-.8 8.17-5.34 6.68-10.48 1.7498176-4.2907787 2.6301757-8.8863158 2.59-13.52 0-14-15.89-20-24-20zm19.24 27c.1023355-1.9251506.6028788-3.8081469 1.47-5.53.2595738-.488772.073772-1.0954261-.415-1.355-.488772-.2595738-1.0954262-.073772-1.355.415-1.0216731 2.0107207-1.6013134 4.2167636-1.7 6.47 0 3.32 3.43 6.9 2.41 10.74-1.33 5.06-7.36 4.26-7.65 4.26-.5522847-.0745584-1.0604416.3127153-1.135.865s.3127153 1.0604416.865 1.135l.56.06c-1.6583481 2.705341-2.927475 5.6307289-3.77 8.69-.89 3.48-3.77 5.25-8.52 5.25s-7.63-1.77-8.55-5.26c-.842525-3.0592711-2.1116519-5.984659-3.77-8.69l.56-.06c.5495233-.0662742.9412741-.5654767.8749999-1.115-.0662741-.5495233-.5654766-.9412741-1.1149999-.875-.26 0-6.29.79-7.62-4.27-1-3.86 2.41-7.41 2.41-10.74-.09868662-2.2532364-.67832694-4.4592793-1.7-6.47-.25957384-.488772-.86622799-.6745738-1.35499999-.415s-.67457383.866228-.41500001 1.355c.85805635 1.7271742 1.34839206 3.6136046 1.44 5.54-.16149035 1.2610003-.53687263 2.4852199-1.11 3.62-1.11322578-3.4292616-1.67027448-7.0146296-1.65-10.62 0-12 14.1-18 22-18s22 6 22 18c.0202745 3.6053704-.5367742 7.1907384-1.65 10.62-.5727642-1.1349262-.948127-2.3590823-1.11-3.62z"/><path id="Shape" d="m29 50h-8c-.5522847 0-1 .4477153-1 1s.4477153 1 1 1h8c.5522847 0 1-.4477153 1-1s-.4477153-1-1-1z"/></g></svg>