<svg id="Capa_1" enable-background="new 0 0 512 512" height="512" viewBox="0 0 512 512" width="512" xmlns="http://www.w3.org/2000/svg"><g><g><g><g><g><g><g><circle cx="256" cy="256" fill="#ffce00" r="256"/></g></g></g></g></g></g><path d="m185.368 428.853 82.86 82.86c135.706-6.381 243.772-118.427 243.772-255.713 0-5.463-.171-10.886-.509-16.265l-134.533-134.534z" fill="#ffa300"/><g><path d="m418.206 213.264c0 89.584-72.622 248.524-162.206 248.524s-162.206-158.94-162.206-248.524 72.622-162.206 162.206-162.206 162.206 72.622 162.206 162.206z" fill="#1dd882"/></g><g><path d="m418.206 213.264c0-89.543-72.557-162.139-162.085-162.204v410.726c89.528-.143 162.085-158.978 162.085-248.522z" fill="#06b26b"/></g><g><g><ellipse cx="180.215" cy="238.446" fill="#555a66" rx="35.242" ry="61.054" transform="matrix(.429 -.903 .903 .429 -112.488 298.933)"/></g><g><ellipse cx="331.785" cy="238.446" fill="#333940" rx="61.054" ry="35.242" transform="matrix(.903 -.429 .429 .903 -70.213 165.404)"/></g></g><g><g><circle cx="230.284" cy="336.819" fill="#555a66" r="15.399"/></g><g><circle cx="281.716" cy="336.819" fill="#333940" r="15.399"/></g></g></g></svg>